<?xml version="1.0" encoding="UTF-8" standalone="no"?>
<svg
   width="33"
   height="33"
   viewBox="0 0 33 33"
   fill="none"
   version="1.1"
   id="svg2427"
   sodipodi:docname="test.svg"
   inkscape:version="1.1.2 (b8e25be833, 2022-02-05)"
   xmlns:inkscape="http://www.inkscape.org/namespaces/inkscape"
   xmlns:sodipodi="http://sodipodi.sourceforge.net/DTD/sodipodi-0.dtd"
   xmlns="http://www.w3.org/2000/svg"
   xmlns:svg="http://www.w3.org/2000/svg">
  <defs
     id="defs2431" />
  <sodipodi:namedview
     id="namedview2429"
     pagecolor="#ffffff"
     bordercolor="#666666"
     borderopacity="1.0"
     inkscape:pageshadow="2"
     inkscape:pageopacity="0.0"
     inkscape:pagecheckerboard="0"
     showgrid="false"
     inkscape:zoom="39.030303"
     inkscape:cx="16.5"
     inkscape:cy="16.5"
     inkscape:window-width="3840"
     inkscape:window-height="1526"
     inkscape:window-x="2869"
     inkscape:window-y="-11"
     inkscape:window-maximized="1"
     inkscape:current-layer="svg2427" />
  <g
     id="g4211">
    <path
       fill-rule="evenodd"
       clip-rule="evenodd"
       d="M16.5 33C25.6127 33 33 25.6127 33 16.5C33 7.3873 25.6127 0 16.5 0C7.3873 0 0 7.3873 0 16.5C0 25.6127 7.3873 33 16.5 33Z"
       fill="#FFD723"
       id="path2425" />
    <g
       id="surface1"
       transform="translate(7.5768624,7.4144679)">
      <path
         style="fill:#ffffff;fill-opacity:1;fill-rule:nonzero;stroke:none"
         d="M 10.476562,0.0507812 C 9.464844,0.207031 8.753906,0.550781 8.171875,1.167969 7.679688,1.6875 7.371094,2.296875 7.199219,3.09375 7.132812,3.394531 7.125,3.578125 7.113281,5 L 7.097656,6.574219 H 4.324219 V 9.773438 L 5.707031,9.78125 7.085938,9.789062 7.101562,18 H 10.40625 V 9.773438 h 1.371094 c 0.757812,0 1.371094,-0.00391 1.371094,-0.011719 0.09375,-0.640625 0.40625,-3.140625 0.398437,-3.164063 -0.0078,-0.011718 -0.71875,-0.023437 -1.578125,-0.023437 h -1.566406 l 0.01172,-1.3125 c 0.01172,-1.277344 0.01172,-1.308594 0.09375,-1.515625 0.164063,-0.410156 0.511719,-0.65625 1.03125,-0.722656 0.140626,-0.019532 0.679688,-0.035157 1.199219,-0.035157 h 0.9375 L 13.660156,0.121094 13.203125,0.0820312 c -0.75,-0.0664062 -2.375,-0.0898437 -2.726563,-0.03125 z m 0,0"
         id="path2522" />
    </g>
  </g>
</svg>
