<svg xmlns="http://www.w3.org/2000/svg" version="1.0" width="512.000000" height="512.000000" preserveAspectRatio="xMidYMid meet"><rect id="backgroundrect" width="100%" height="100%" x="0" y="0" fill="none" stroke="none"/>


<g class="currentLayer" style=""><title>Layer 1</title><g transform="translate(0,512) scale(0.10000000149011612,-0.10000000149011612) " fill="#5e6648" stroke="none" id="svg_1" class="selected" fill-opacity="1">
<path d="M2980 5106 c-288 -45 -490 -143 -656 -318 -140 -148 -227 -321 -276 -548 -19 -86 -21 -138 -25 -542 l-4 -448 -395 0 -394 0 0 -455 0 -455 393 -2 392 -3 3 -1167 2 -1168 470 0 470 0 0 1170 0 1170 390 0 c215 0 390 1 390 3 27 182 116 894 113 900 -2 4 -204 7 -449 7 l-445 0 3 373 c3 364 4 373 27 431 47 117 145 187 293 206 40 5 193 10 341 10 l267 0 -2 408 -3 407 -130 12 c-213 19 -675 25 -775 9z" id="svg_2" fill="#5e6648"/>
</g></g></svg>