<svg xmlns="http://www.w3.org/2000/svg" version="1.0" width="512.000000" height="512.000000" preserveAspectRatio="xMidYMid meet"><rect id="backgroundrect" width="100%" height="100%" x="0" y="0" fill="none" stroke="none"/>


<g class="currentLayer" style=""><title>Layer 1</title><g transform="translate(0,512) scale(0.10000000149011612,-0.10000000149011612) " fill="#5e6648" stroke="none" id="svg_1" class="selected" fill-opacity="1">
<path d="M1485 4174 c-248 -29 -429 -83 -624 -185 -449 -235 -751 -654 -838 -1159 -22 -129 -22 -411 0 -540 87 -505 389 -924 838 -1159 231 -121 446 -177 724 -188 585 -23 1093 214 1380 646 139 209 222 451 256 740 14 123 6 455 -13 576 l-13 80 -827 3 -828 2 0 -385 0 -385 415 -2 415 -3 -45 -90 c-104 -208 -272 -342 -500 -396 -76 -18 -109 -20 -215 -16 -138 6 -209 22 -317 72 -153 71 -289 185 -380 320 -55 81 -76 125 -109 225 -25 77 -28 98 -28 230 0 132 3 153 28 230 33 100 54 144 109 225 118 174 312 314 517 371 91 26 337 26 430 1 113 -30 224 -92 307 -170 l74 -71 285 285 c156 156 284 287 284 290 0 4 -37 39 -82 79 -239 208 -495 320 -840 365 -99 13 -322 18 -403 9z" id="svg_2" fill="#5e6648"/>
<path d="M4010 3245 l0 -255 -255 0 -255 0 0 -300 0 -300 255 0 255 0 0 -255 0 -255 300 0 300 0 0 255 0 255 255 0 255 0 0 300 0 300 -255 0 -255 0 0 255 0 255 -300 0 -300 0 0 -255z" id="svg_3" fill="#5e6648"/>
</g></g></svg>