<?xml version="1.0" encoding="UTF-8" standalone="no"?>
<svg
   width="33"
   height="33"
   viewBox="0 0 33 33"
   fill="none"
   version="1.1"
   id="svg2427"
   sodipodi:docname="testgpyellow.svg"
   inkscape:version="1.1.2 (b8e25be833, 2022-02-05)"
   xmlns:inkscape="http://www.inkscape.org/namespaces/inkscape"
   xmlns:sodipodi="http://sodipodi.sourceforge.net/DTD/sodipodi-0.dtd"
   xmlns="http://www.w3.org/2000/svg"
   xmlns:svg="http://www.w3.org/2000/svg">
  <defs
     id="defs2431" />
  <sodipodi:namedview
     id="namedview2429"
     pagecolor="#ffffff"
     bordercolor="#666666"
     borderopacity="1.0"
     inkscape:pageshadow="2"
     inkscape:pageopacity="0.0"
     inkscape:pagecheckerboard="0"
     showgrid="false"
     inkscape:zoom="33.953783"
     inkscape:cx="16.404652"
     inkscape:cy="16.404652"
     inkscape:window-width="3840"
     inkscape:window-height="1526"
     inkscape:window-x="2869"
     inkscape:window-y="-11"
     inkscape:window-maximized="1"
     inkscape:current-layer="svg2427" />
  <g
     id="g10310">
    <path
       fill-rule="evenodd"
       clip-rule="evenodd"
       d="M16.5 33C25.6127 33 33 25.6127 33 16.5C33 7.3873 25.6127 0 16.5 0C7.3873 0 0 7.3873 0 16.5C0 25.6127 7.3873 33 16.5 33Z"
       fill="#FFD723"
       id="path2425" />
    <g
       id="g10300"
       transform="matrix(0.03865729,0,0,0.04047387,6.6037338,6.4240838)">
      <rect
         id="backgroundrect"
         width="100%"
         height="100%"
         x="0"
         y="0"
         fill="none"
         stroke="none" />
      <g
         class="currentLayer"
         id="g10286">
        <title
           id="title10281">Layer 1</title>
        <g
           transform="matrix(0.1,0,0,-0.1,0,512)"
           fill="#ffffff"
           stroke="none"
           id="svg_1"
           class="selected"
           fill-opacity="1">
          <path
             d="M 1485,4174 C 1237,4145 1056,4091 861,3989 412,3754 110,3335 23,2830 1,2701 1,2419 23,2290 c 87,-505 389,-924 838,-1159 231,-121 446,-177 724,-188 585,-23 1093,214 1380,646 139,209 222,451 256,740 14,123 6,455 -13,576 l -13,80 -827,3 -828,2 v -385 -385 l 415,-2 415,-3 -45,-90 c -104,-208 -272,-342 -500,-396 -76,-18 -109,-20 -215,-16 -138,6 -209,22 -317,72 -153,71 -289,185 -380,320 -55,81 -76,125 -109,225 -25,77 -28,98 -28,230 0,132 3,153 28,230 33,100 54,144 109,225 118,174 312,314 517,371 91,26 337,26 430,1 113,-30 224,-92 307,-170 l 74,-71 285,285 c 156,156 284,287 284,290 0,4 -37,39 -82,79 -239,208 -495,320 -840,365 -99,13 -322,18 -403,9 z"
             id="svg_2"
             fill="#ffffff"
             fill-opacity="1" />
          <path
             d="m 4010,3245 v -255 h -255 -255 v -300 -300 h 255 255 v -255 -255 h 300 300 v 255 255 h 255 255 v 300 300 h -255 -255 v 255 255 h -300 -300 z"
             id="svg_3"
             fill="#ffffff"
             fill-opacity="1" />
        </g>
      </g>
    </g>
  </g>
</svg>
