<?xml version="1.0" encoding="UTF-8" standalone="no"?>
<svg
   width="33"
   height="33"
   viewBox="0 0 33 33"
   fill="none"
   version="1.1"
   id="svg2427"
   sodipodi:docname="twitterwhite.svg"
   inkscape:version="1.1.2 (b8e25be833, 2022-02-05)"
   xmlns:inkscape="http://www.inkscape.org/namespaces/inkscape"
   xmlns:sodipodi="http://sodipodi.sourceforge.net/DTD/sodipodi-0.dtd"
   xmlns="http://www.w3.org/2000/svg"
   xmlns:svg="http://www.w3.org/2000/svg">
  <defs
     id="defs2431" />
  <sodipodi:namedview
     id="namedview2429"
     pagecolor="#ffffff"
     bordercolor="#666666"
     borderopacity="1.0"
     inkscape:pageshadow="2"
     inkscape:pageopacity="0.0"
     inkscape:pagecheckerboard="0"
     showgrid="false"
     inkscape:zoom="39.030303"
     inkscape:cx="16.5"
     inkscape:cy="16.5"
     inkscape:window-width="3840"
     inkscape:window-height="1526"
     inkscape:window-x="2869"
     inkscape:window-y="-11"
     inkscape:window-maximized="1"
     inkscape:current-layer="svg2427" />
  <g
     id="g4335">
    <path
       fill-rule="evenodd"
       clip-rule="evenodd"
       d="M16.5 33C25.6127 33 33 25.6127 33 16.5C33 7.3873 25.6127 0 16.5 0C7.3873 0 0 7.3873 0 16.5C0 25.6127 7.3873 33 16.5 33Z"
       fill="#FFD723"
       id="path2425" />
    <path
       style="fill:#ffffff;fill-opacity:1;fill-rule:nonzero;stroke:none"
       d="m 19.343181,9.2439592 c -1.433594,0.261718 -2.570313,1.3085928 -2.945313,2.7304678 -0.06641,0.242188 -0.08203,0.386719 -0.08203,0.871093 0,0.320312 0.0078,0.648438 0.02734,0.730469 l 0.02344,0.15625 -0.234375,-0.02734 C 14.581462,13.564274 13.327555,13.212712 12.081462,12.560369 10.929118,11.958806 9.7298994,11.013494 8.9955244,10.130681 8.8822434,9.9978694 8.7767744,9.8963064 8.7572434,9.9041194 c -0.019531,0.0039 -0.09375,0.1445306 -0.167969,0.3164056 -0.5039063,1.140625 -0.4101563,2.460937 0.246094,3.484374 0.195313,0.300781 0.511719,0.65625 0.765625,0.859375 l 0.265625,0.214844 h -0.144531 c -0.308594,0 -0.953125,-0.175782 -1.300782,-0.351563 -0.074218,-0.03906 -0.1523433,-0.07031 -0.1640623,-0.07031 -0.05078,0 0.01172,0.644531 0.09375,0.953125 0.3203123,1.210937 1.2187503,2.171875 2.4179689,2.574218 0.199219,0.06641 0.339843,0.128907 0.308593,0.140626 -0.15625,0.05859 -0.675781,0.101562 -1.0820306,0.08594 l -0.457031,-0.01953 0.027344,0.08984 c 0.035156,0.15625 0.296875,0.648437 0.4570306,0.871093 0.621094,0.875 1.636719,1.472657 2.628906,1.550781 0.148438,0.01172 0.269531,0.03125 0.269531,0.05078 0,0.05469 -0.789062,0.542968 -1.269531,0.785156 -1.097656,0.542969 -2.1835926,0.777344 -3.4570309,0.75 l -0.652344,-0.01172 0.183594,0.113281 c 0.269531,0.167969 1.0859383,0.582032 1.4531253,0.730469 1.9687496,0.820313 4.2734366,1.007813 6.4453126,0.527344 3.195312,-0.710937 5.828124,-2.933594 7.160156,-6.046875 0.5625,-1.328125 0.847656,-2.636719 0.878906,-4.042969 l 0.01172,-0.632812 0.257812,-0.203124 c 0.324219,-0.261719 0.6875,-0.609375 0.964844,-0.921875 0.238281,-0.265625 0.582031,-0.726563 0.558594,-0.742188 -0.0039,-0.0078 -0.109375,0.02734 -0.234375,0.07422 -0.46875,0.191406 -1.546875,0.464844 -1.707032,0.433594 -0.03906,-0.0078 -0.01172,-0.04297 0.08984,-0.109375 0.269532,-0.175781 0.742188,-0.664063 0.941406,-0.964844 0.175782,-0.261719 0.433594,-0.7773438 0.433594,-0.8710938 0,-0.019531 -0.214844,0.070313 -0.476562,0.203125 -0.480469,0.2304692 -1.101563,0.4570318 -1.585938,0.5703128 l -0.257809,0.0625 -0.214844,-0.199219 C 21.624431,9.3963032 20.436931,9.0486472 19.343181,9.2439592 Z m 0,0"
       id="path4322" />
  </g>
</svg>
